<svg xmlns="http://www.w3.org/2000/svg" xml:space="preserve" width="512px" height="512px" style="shape-rendering:geometricPrecision; text-rendering:geometricPrecision; image-rendering:optimizeQuality; fill-rule:evenodd; clip-rule:evenodd" viewBox="0 0 512 512" xmlns:xlink="http://www.w3.org/1999/xlink">
<defs>
<style type="text/css">
   
    .fil0 {fill:url(#id0)}
   
  </style>
<linearGradient id="id0" gradientUnits="userSpaceOnUse" x1="128.001" y1="256" x2="384" y2="256">
<stop offset="0" style="stop-color: rgb(9, 10, 10);" id="id_114"></stop>
<stop offset="1" style="stop-color: rgb(6, 8, 8);" id="id_115"></stop>
</linearGradient>
</defs>
<g id="Layer_x0020_1">
<metadata id="CorelCorpID_0Corel-Layer"></metadata>
<path class="fil0" d="M370 472.999l-228 0 0 25.0005 228 0 0 -25.0005zm-228 -14.0008l228 0.00118111 0 -228.999c0,-25.8001 -20.2005,-46.0005 -46.0005,-46.0005l-41.9989 0 0 193c-0.00118111,11.876 -8.07286,21.9591 -19.0005,25.0347l0 20.9646c0,9.23271 -13.9996,9.23271 -13.9996,0l0 -20.8831c-11.191,-2.91497 -18.9993,-12.7595 -18.9993,-25.1162l0 -193 -42.0013 0.00118111c-24.6438,-0.616537 -45.9994,19.7882 -45.9994,45.9994l0 228.998zm234.999 53.001l-241.998 0c-3.90001,0 -7.00042,-3.1004 -7.00042,-7.00042l0 -274.998c0,-30.88 22.8556,-56.1828 52.9986,-59.6045l0 -52.395c0,-3.90001 3.1004,-7.00042 7.00042,-7.00042l22.7469 0 10.2532 -83.8007c1.50119,-15.6993 13.3004,-27.1997 28.0005,-27.1997l12.9993 0c14.1,0 25.9997,10.9996 28.9005,26.7001l9.41223 84.3003 23.6871 0c3.90001,0 7.00042,3.1004 7.00042,7.00042l0 52.395c30.1985,3.42757 52.9998,28.8213 52.9998,59.6045l0 274.999c0,3.89883 -3.1004,6.99923 -7.00042,6.99923zm-181.999 -341.999l121.999 0 0 -45.0013 -121.999 0.00118111 0 45.0001zm72.9994 13.9996l-23.9977 0 0 193c0,7.24136 5.03978,12.1642 11.9977,11.9989l0.00118111 0.00118111c5.80395,0 12,-4.60395 12,-12l-0.00118111 -193zm-43.0454 -72.9994l61.2888 0 -9.14176 -82.0006c-1.39961,-7.50002 -6.60002,-15 -15.1004,-15 -11.3351,0 -25.4245,-2.42954 -27.0001,14.7993l-10.0465 82.2014z" id="id_113"></path>
</g>
</svg>